<?xml version="1.0" encoding="UTF-8"?>
<svg id="Layer_1" data-name="Layer 1" xmlns="http://www.w3.org/2000/svg" viewBox="0 0 570.53 203.56">
  <defs>
    <style>
      .cls-1 {
        fill: #f37f21;
      }

      .cls-1, .cls-2, .cls-3, .cls-4, .cls-5, .cls-6 {
        stroke-width: 0px;
      }

      .cls-7 {
        font-family: SofiaPro-Bold, 'Sofia Pro';
        font-size: 105.13px;
        font-weight: 700;
      }

      .cls-2, .cls-8, .cls-9 {
        fill: #e97624;
      }

      .cls-3 {
        fill: none;
      }

      .cls-8 {
        letter-spacing: -.06em;
      }

      .cls-10 {
        letter-spacing: -.03em;
      }

      .cls-10, .cls-11, .cls-12 {
        fill: #231f20;
      }

      .cls-4 {
        fill: #dc6f26;
      }

      .cls-11 {
        letter-spacing: -.01em;
      }

      .cls-5 {
        fill: #eaeaea;
      }

      .cls-6 {
        fill: #4d56a5;
      }
    </style>
  </defs>
  <g>
    <path class="cls-3" d="m71,52.97c-1.06.94-2.46,1.5-3.99,1.5-3.33,0-6.04-2.7-6.04-6.04,0-1.43.49-2.73,1.32-3.76,2.52,3.13,5.45,5.92,8.71,8.3Z"/>
    <path class="cls-3" d="m71,52.97c-1.06.94-2.46,1.5-3.99,1.5-3.33,0-6.04-2.7-6.04-6.04,0-1.43.49-2.73,1.32-3.76,2.52,3.13,5.45,5.92,8.71,8.3Z"/>
    <path class="cls-3" d="m71,52.97c-1.06.94-2.46,1.5-3.99,1.5-3.33,0-6.04-2.7-6.04-6.04,0-1.43.49-2.73,1.32-3.76,2.52,3.13,5.45,5.92,8.71,8.3Z"/>
    <path class="cls-2" d="m103.84,61.52c-5.69,2.87-11.1,6.21-16.19,9.94,0,0,0,0,0,0-1.09.8-2.17,1.62-3.22,2.45-.49.08-.97.16-1.44.24-14.71,2.6-28.23,8.66-39.67,17.32-.57.43-1.14.87-1.7,1.32-11.03-9.58-18-23.7-18-39.45,0-3.85.42-7.61,1.22-11.22,3.45-15.76,14.01-28.86,28.15-35.75-.59,2.9-.91,5.9-.92,8.97,0,.1,0,.2,0,.3,0,6.04,1.16,11.82,3.27,17.11,1.73,4.34,4.1,8.35,6.99,11.92-.83,1.03-1.32,2.34-1.32,3.76,0,3.34,2.7,6.04,6.04,6.04,1.53,0,2.92-.57,3.99-1.5,7.64,5.59,17.06,8.89,27.26,8.89,1.89,0,3.75-.11,5.58-.34Z"/>
    <path class="cls-5" d="m84.41,73.92c-9.56,7.55-17.89,16.58-24.66,26.74-.44.65-.86,1.31-1.28,1.97-11.35,17.84-17.93,39.01-17.93,61.72,0,13.77,2.42,26.97,6.85,39.21-18.1-14.14-31.93-33.49-39.25-55.79,4.01-20.71,14.9-38.96,30.19-52.27,1.06-.93,2.15-1.83,3.26-2.7.56-.45,1.13-.89,1.7-1.32,11.44-8.66,24.96-14.73,39.67-17.32.48-.08.96-.16,1.44-.24Z"/>
    <path class="cls-1" d="m41.6,92.8c-1.11.87-2.2,1.78-3.26,2.7-15.3,13.31-26.19,31.56-30.19,52.27-3.78-11.51-5.83-23.82-5.83-36.6,0-16.25,3.31-31.73,9.28-45.79,3.52-8.29,7.97-16.08,13.22-23.26-.8,3.62-1.22,7.37-1.22,11.22,0,15.75,6.98,29.88,18,39.45Z"/>
    <path class="cls-4" d="m36.94,10.78c0,2.35.27,4.65.78,6.85-6.31,6.74-10.86,15.14-12.9,24.49-5.24,7.17-9.69,14.97-13.22,23.26-1.82-5.31-2.81-11.01-2.81-16.95C8.79,27.68,20.89,9.75,38.43,1.32c-.97,2.98-1.49,6.16-1.49,9.46Z"/>
    <path class="cls-3" d="m71,52.97c-1.06.94-2.46,1.5-3.99,1.5-3.33,0-6.04-2.7-6.04-6.04,0-1.43.49-2.73,1.32-3.76,2.52,3.13,5.45,5.92,8.71,8.3Z"/>
    <path class="cls-6" d="m71,52.97c-1.06.94-2.46,1.5-3.99,1.5-3.33,0-6.04-2.7-6.04-6.04,0-1.43.49-2.73,1.32-3.76,2.52,3.13,5.45,5.92,8.71,8.3Z"/>
  </g>
  <text class="cls-7" transform="translate(163.69 131.75)"><tspan class="cls-11" x="0" y="0">Ne</tspan><tspan class="cls-12" x="126.89" y="0">x</tspan><tspan class="cls-10" x="182.61" y="0">t</tspan><tspan class="cls-8" x="217.3" y="0">T</tspan><tspan class="cls-9" x="271.12" y="0">rip</tspan></text>
</svg>